<svg width="20" height="20" viewBox="0 0 20 20" fill="none">
<g id="Group 39522">
<circle id="Ellipse 10" cx="10" cy="10" r="9" fill="#00E300" stroke="white" stroke-width="2"/>
<g id="Group 39519">
<path id="Vector" d="M13.7284 7.00832C13.7179 7.02141 13.7068 7.03384 13.695 7.04693L11.7929 8.91569L12.281 8.94121C12.4897 8.95168 12.6507 9.12965 12.6402 9.33839C12.6297 9.54712 12.4518 9.70808 12.243 9.69761L10.8846 9.62891C10.6988 9.61975 10.5503 9.4771 10.528 9.29847L10.3468 7.86287C10.3206 7.6548 10.4665 7.46504 10.6753 7.43821C10.8833 7.41204 11.0731 7.55796 11.0999 7.76669L11.1784 8.38961L13.1087 6.38867L13.7284 7.00832Z" fill="white"/>
<path id="Vector_2" d="M8.21423 9.2889C8.48447 9.77637 8.79593 10.2442 9.20096 10.6708C9.60599 11.1007 10.1105 11.4914 10.7641 11.8238C10.8119 11.848 10.8584 11.848 10.8989 11.831C10.9618 11.8068 11.0239 11.7564 11.0874 11.6936C11.1352 11.6458 11.196 11.5679 11.2588 11.4842C11.5094 11.1537 11.8209 10.7435 12.2599 10.9483C12.2698 10.9529 12.277 10.9581 12.2868 10.9627L13.7498 11.8048C13.7544 11.8074 13.7597 11.812 13.7642 11.8146C13.9573 11.9468 14.0371 12.1516 14.0397 12.3839C14.0397 12.6201 13.9527 12.8857 13.8251 13.1102C13.6563 13.4066 13.4076 13.6022 13.121 13.7324C12.8482 13.8574 12.5446 13.9255 12.2527 13.9687C11.7947 14.036 11.3655 13.9929 10.9258 13.8574C10.4959 13.7252 10.064 13.5047 9.59159 13.2136L9.55757 13.1913C9.34098 13.0565 9.10608 12.9113 8.87707 12.7398C8.0356 12.1058 7.17974 11.1891 6.62225 10.1807C6.1544 9.33339 5.89856 8.41929 6.03793 7.54838C6.11514 7.07072 6.3206 6.63625 6.67721 6.34965C6.98802 6.09904 7.4081 5.96164 7.95119 6.0094C8.01401 6.01398 8.06962 6.05062 8.09841 6.10362L9.03738 7.69103C9.17478 7.86966 9.1918 8.04567 9.1172 8.22234C9.05439 8.36695 8.92876 8.49978 8.75732 8.62541C8.70694 8.66859 8.64609 8.71243 8.58327 8.75758C8.37389 8.90939 8.1344 9.0854 8.21619 9.29348L8.21423 9.2889Z" fill="white"/>
</g>
</g>
</svg>
