<svg width="24" height="30" viewBox="0 0 24 30" fill="none" xmlns="http://www.w3.org/2000/svg">
<path fill-rule="evenodd" clip-rule="evenodd" d="M17.4766 25.9473C16.1118 27.4439 14.5225 28.7842 12.7378 29.8682C12.5181 30.0293 12.2202 30.0489 11.9761 29.8926C9.33941 28.2154 7.12508 26.2012 5.38437 24.0113C2.98204 20.9987 1.47083 17.6588 0.953252 14.4411C0.425912 11.1794 0.919072 8.03977 2.54259 5.48853C3.18224 4.48023 4.0001 3.56227 4.99619 2.76882C7.28621 0.945107 9.90093 -0.0192402 12.5083 0.000290907C15.0181 0.019822 17.4961 0.954873 19.6372 2.91042C20.3891 3.59401 21.0214 4.3777 21.539 5.2273C23.2846 8.10325 23.6606 11.7702 22.894 15.486C22.1372 19.1578 20.2573 22.8883 17.4766 25.94V25.9473ZM12.0103 5.80102C15.106 5.80102 17.6133 8.31077 17.6133 11.404C17.6133 14.4997 15.1035 17.007 12.0103 17.007C8.91461 17.007 6.40731 14.4997 6.40731 11.404C6.40487 8.30833 8.91461 5.80102 12.0103 5.80102Z" fill="#FED7CD"/>
</svg>
