<svg width="27" height="32" viewBox="0 0 27 32" fill="none" xmlns="http://www.w3.org/2000/svg">
<path fill-rule="evenodd" clip-rule="evenodd" d="M8.33032 4.19271H8.6298V3.82813H9.04907V3.38802H9.34855V0.226563C9.34855 0.101563 9.45011 0 9.57511 0C9.70011 0 9.80168 0.101563 9.80168 0.226563V0.572917C12.2236 1.88021 12.4423 -1.22656 14.8928 1.01302C14.01 0.989583 13.3459 1.40365 12.5725 1.84896C11.8173 2.28385 11.0829 2.69271 10.1897 2.70052C10.0334 2.70313 9.90063 2.69271 9.79907 2.68229V3.38542H10.0881V3.82552H10.5074V4.1901H10.8069V5.1875H11.1897C13.3954 8.57813 14.6194 11.2161 15.0855 15.2161C15.0933 15.2813 15.1012 15.3464 15.1064 15.4115C15.6506 13.8177 16.51 12.3906 17.5881 10.7344H18.0439V9.9375H18.2834V9.64583H18.6194V9.29427H18.8147V6.76563C18.8147 6.64063 18.9163 6.53906 19.0413 6.53906C19.1663 6.53906 19.2678 6.64063 19.2678 6.76563V7.06771C21.1611 8.04948 21.3512 5.61719 23.2965 7.39583C22.5907 7.3776 22.0595 7.70833 21.4423 8.0651C20.8381 8.41406 20.2496 8.73958 19.536 8.7474C19.4345 8.7474 19.3433 8.74479 19.2704 8.73698V9.29427H19.4579V9.64583H19.7939V9.9375H20.0334V10.7344H20.3381C22.1012 13.4479 23.0829 15.5547 23.4527 18.7578C23.5387 19.5078 23.5855 20.2813 23.5777 21.0833L24.6428 21.6797H24.9788V21.8984H25.3459V22.1172H25.5959L25.5855 22.3333H24.3459L23.898 22.7891C23.8485 23.0573 23.8564 23.2526 23.898 23.401H24.1637V23.5833C23.6584 23.849 23.5022 24.3307 23.5022 24.862L23.635 24.9505C23.5647 25.1432 23.4683 25.2995 23.3381 25.4036V26.2188H23.6038V26.6354H23.3303C23.3303 28.4922 23.3303 27.5339 23.3303 29.2214H24.0387V29.8385H24.8199V30.5104H25.6194V31H26.4918V32C17.622 32 8.91366 31.9349 0.0646973 31.9349V30.6823H1.15584V30.0677H2.15584V29.2266H3.13241V28.4531H4.01782C4.01782 26.3438 4.01782 27.3802 4.01782 25.0573H3.67668V24.5339H4.00741V23.5156C3.84334 23.388 3.72355 23.1927 3.63501 22.9505L3.80168 22.8411C3.80168 22.1771 3.60636 21.5755 2.97355 21.2422V21.0156H3.30688C3.35897 20.8307 3.36678 20.5859 3.30688 20.25L2.74959 19.6823H1.20011L1.17928 19.4167H1.49178V19.1432H1.95272V18.8698H2.37459L3.70532 18.1224C3.69491 17.1172 3.7548 16.151 3.86418 15.2135C4.32772 11.2109 5.55428 8.57552 7.76001 5.1849H8.33032V4.19271ZM9.79126 20.737L10.747 22.4922L11.3902 20.6198C11.4397 20.612 11.4892 20.6068 11.5387 20.599C13.6272 23.0859 12.7756 25.5547 12.7756 28.9193H6.22355C6.22355 26.013 5.46834 22.9974 7.38761 20.5339C7.39282 20.5365 7.39803 20.5365 7.40324 20.5391C7.54386 20.5677 7.68709 20.5964 7.83553 20.6172L8.59855 22.3255L9.39282 20.737C9.44491 20.737 9.49959 20.737 9.55168 20.737C9.6298 20.7396 9.71053 20.7396 9.79126 20.737ZM11.3407 20.3802C10.7887 20.4531 10.1715 20.4948 9.54907 20.4948C8.86157 20.4948 8.17147 20.4401 7.56209 20.3203C8.03605 19.7839 8.65584 19.3464 9.46313 19.0547C10.2496 19.4271 10.8616 19.8724 11.3407 20.3802ZM18.9371 21.6693C22.4423 23.3307 21.4736 25.487 21.4736 28.9193H16.4553C16.4553 26.0964 15.5439 22.9063 18.9371 21.6693Z" fill="#FED7CD"/>
</svg>
