<svg width="28" height="28" viewBox="0 0 28 28" fill="none" xmlns="http://www.w3.org/2000/svg">
<path fill-rule="evenodd" clip-rule="evenodd" d="M12.6521 22.2592L6.92933 27.701C6.80686 27.8363 6.64592 27.9317 6.46771 27.9746C6.2895 28.0175 6.10236 28.0059 5.93095 27.9412C5.75954 27.8766 5.61189 27.762 5.50744 27.6126C5.40299 27.4631 5.34664 27.2858 5.34581 27.104V22.2592H2.32127C1.70675 22.2557 1.11842 22.012 0.683882 21.5812C0.249342 21.1503 0.00361848 20.567 0 19.9577L0 2.30158C0.00480767 1.69264 0.250913 1.10999 0.685197 0.679386C1.11948 0.248785 1.70712 0.0047669 2.32127 0L25.6787 0C26.2933 0.00358779 26.8816 0.247227 27.3161 0.678082C27.7507 1.10894 27.9964 1.69227 28 2.30158V19.9577C27.9964 20.567 27.7507 21.1503 27.3161 21.5812C26.8816 22.012 26.2933 22.2557 25.6787 22.2592H12.6521ZM6.32718 8.34266C6.09521 8.33106 5.8766 8.23153 5.71655 8.06463C5.55651 7.89774 5.46726 7.67625 5.46726 7.44595C5.46726 7.21566 5.55651 6.99417 5.71655 6.82728C5.8766 6.66038 6.09521 6.56085 6.32718 6.54925H21.6728C21.7954 6.54312 21.918 6.56177 22.0331 6.60407C22.1482 6.64636 22.2534 6.71142 22.3424 6.79529C22.4314 6.87916 22.5022 6.98009 22.5506 7.09194C22.599 7.2038 22.624 7.32424 22.624 7.44595C22.624 7.56767 22.599 7.68811 22.5506 7.79997C22.5022 7.91182 22.4314 8.01275 22.3424 8.09662C22.2534 8.18049 22.1482 8.24555 22.0331 8.28784C21.918 8.33014 21.7954 8.34879 21.6728 8.34266H6.32718ZM6.32718 14.165C6.09521 14.1534 5.8766 14.0538 5.71655 13.8869C5.55651 13.7201 5.46726 13.4986 5.46726 13.2683C5.46726 13.038 5.55651 12.8165 5.71655 12.6496C5.8766 12.4827 6.09521 12.3832 6.32718 12.3716H18.8459C19.0779 12.3832 19.2965 12.4827 19.4566 12.6496C19.6166 12.8165 19.7059 13.038 19.7059 13.2683C19.7059 13.4986 19.6166 13.7201 19.4566 13.8869C19.2965 14.0538 19.0779 14.1534 18.8459 14.165H6.32718Z" fill="#FED7CD"/>
</svg>
